<?xml version="1.0" encoding="UTF-8"?>
<svg id="Layer_2" data-name="Layer 2" xmlns="http://www.w3.org/2000/svg" viewBox="0 0 50 50">
  <defs>
    <style>
      .cls-1 {
        fill: #fff;
      }
    </style>
  </defs>
  <g id="Layer_2-2" data-name="Layer 2">
    <g id="Layer_1-2" data-name="Layer 1-2">
      <g>
        <path class="cls-1" d="M30.3,4.7c1.9.5,3.7,1.2,5.3,2.2l3.8-2.8c-2.9-2-6.3-3.5-9.9-4.1,0,0,.8,4.7.8,4.7Z"/>
        <path class="cls-1" d="M40.3,42.4c1.2,0,2.1-.9,2.1-2.1s-.9-2.1-2.1-2.1-2.1.9-2.1,2.1.9,2.1,2.1,2.1Z"/>
        <path class="cls-1" d="M9.8,11.9c1.2,0,2.1-.9,2.1-2.1s-.9-2.1-2.1-2.1-2.1.9-2.1,2.1.9,2.1,2.1,2.1Z"/>
        <path class="cls-1" d="M40.3,7.7c-1.2,0-2.1.9-2.1,2.1s.9,2.1,2.1,2.1,2.1-.9,2.1-2.1-.9-2.1-2.1-2.1Z"/>
        <path class="cls-1" d="M26.5,4.9c.8-.8.8-2.2,0-3s-2.2-.8-3,0-.8,2.2,0,3,2.2.8,3,0Z"/>
        <path class="cls-1" d="M9.8,42.4c1.2,0,2.1-.9,2.1-2.1s-.9-2.1-2.1-2.1-2.1.9-2.1,2.1.9,2.1,2.1,2.1Z"/>
        <path class="cls-1" d="M41.8,25c0-9.2-7.5-16.8-16.8-16.8S8.2,15.7,8.2,25s7.5,16.8,16.8,16.8,16.8-7.5,16.8-16.8ZM25,39.6c-8.1,0-14.6-6.6-14.6-14.6s6.6-14.6,14.6-14.6,14.6,6.6,14.6,14.6-6.6,14.6-14.6,14.6Z"/>
        <path class="cls-1" d="M23.5,45.2c-.8.8-.8,2.2,0,3s2.2.8,3,0,.8-2.2,0-3-2.2-.8-3,0Z"/>
        <path class="cls-1" d="M45.3,30.3c-.5,1.9-1.2,3.7-2.2,5.3l2.8,3.8c2-2.9,3.5-6.3,4.1-9.9l-4.7.8h0Z"/>
        <path class="cls-1" d="M19.7,45.3c-1.9-.5-3.7-1.2-5.3-2.2l-3.8,2.8c2.9,2,6.3,3.5,9.9,4.1l-.8-4.7h0Z"/>
        <path class="cls-1" d="M35.7,43.1c-1.7,1-3.4,1.7-5.3,2.2l-.8,4.7c3.6-.7,7-2.1,9.9-4.1l-3.8-2.8h0Z"/>
        <path class="cls-1" d="M48.1,26.5c.8-.8.8-2.2,0-3s-2.2-.8-3,0-.8,2.2,0,3,2.2.8,3,0Z"/>
        <path class="cls-1" d="M43.1,14.4c1,1.7,1.7,3.4,2.2,5.3l4.7.8c-.7-3.6-2.1-7-4.1-9.9,0,0-2.8,3.8-2.8,3.8Z"/>
        <path class="cls-1" d="M14.4,6.9c1.7-1,3.4-1.7,5.3-2.2L20.5,0c-3.6.7-7,2.1-9.9,4.1,0,0,3.8,2.8,3.8,2.8Z"/>
        <path class="cls-1" d="M6.9,35.7c-1-1.7-1.7-3.4-2.2-5.3L0,29.7c.7,3.6,2.1,7,4.1,9.9l2.8-3.8v-.1Z"/>
        <path class="cls-1" d="M4.7,19.7c.5-1.9,1.2-3.7,2.2-5.3l-2.8-3.8c-2,2.9-3.5,6.3-4.1,9.9,0,0,4.7-.8,4.7-.8Z"/>
        <path class="cls-1" d="M1.9,23.5c-.8.8-.8,2.2,0,3s2.2.8,3,0,.8-2.2,0-3-2.2-.8-3,0Z"/>
        <path class="cls-1" d="M25.3,14.1l4,6.7,6.7,4c.2.1.2.4,0,.6l-6.7,4-4,6.7c-.1.2-.4.2-.6,0l-4-6.7-6.7-4c-.2-.1-.2-.4,0-.6l6.7-4,4-6.7c.1-.2.4-.2.6,0Z"/>
      </g>
    </g>
  </g>
</svg>