<?xml version="1.0" encoding="UTF-8"?>
<svg id="Layer_2" data-name="Layer 2" xmlns="http://www.w3.org/2000/svg" viewBox="0 0 24.52 24.52">
  <defs>
    <style>
      .cls-1 {
        fill: #fff;
      }
    </style>
  </defs>
  <g id="Layer_1-2" data-name="Layer 1">
    <path class="cls-1" d="M24.52,12.26c0-3.28-1.28-6.35-3.59-8.67S15.54,0,12.26,0,5.91,1.28,3.59,3.59,0,8.99,0,12.26c0,1.73.35,3.4,1.05,4.97.59,1.33,1.41,2.53,2.42,3.58h0s.43.42.43.42l.93.87.03-.06c2.12,1.61,4.71,2.49,7.41,2.49s5.28-.88,7.41-2.49l.03.06.93-.87.43-.4h0c1.02-1.06,1.83-2.26,2.42-3.59.7-1.57,1.05-3.24,1.05-4.97ZM20.27,19.09s0-.01,0-.02c-.04-.06-.07-.13-.11-.19,0-.01-.02-.03-.02-.04-.03-.06-.07-.11-.1-.17,0-.01-.02-.03-.02-.04-.04-.06-.08-.13-.12-.19,0-.01-.02-.03-.03-.04-.04-.05-.08-.11-.11-.16,0-.01-.02-.02-.02-.03-.04-.06-.09-.12-.14-.18,0-.01-.02-.03-.03-.04-.04-.05-.08-.11-.13-.16,0,0-.01-.02-.02-.03-.05-.06-.1-.12-.15-.17-.01-.01-.02-.02-.03-.04-.04-.05-.09-.1-.14-.15,0,0-.01-.01-.02-.02-.05-.06-.1-.11-.16-.17-.01-.01-.02-.02-.04-.04-.05-.05-.1-.1-.15-.15,0,0-.01-.01-.02-.02-.05-.05-.11-.11-.17-.16-.01-.01-.03-.02-.04-.04-.05-.05-.11-.1-.16-.14,0,0,0,0-.01-.01-.06-.05-.12-.1-.17-.15-.01-.01-.03-.02-.04-.03-.06-.05-.11-.09-.17-.14,0,0,0,0,0,0-.06-.05-.12-.09-.18-.14-.02-.01-.03-.02-.05-.03-.06-.05-.13-.09-.19-.13-.06-.04-.13-.09-.19-.13-.02-.01-.03-.02-.05-.03-.06-.04-.11-.07-.17-.11,0,0-.02-.01-.02-.02-.06-.04-.13-.08-.19-.12-.02,0-.03-.02-.05-.03-.05-.03-.11-.06-.16-.09-.01,0-.03-.01-.04-.02-.07-.04-.13-.07-.2-.1-.02,0-.03-.02-.05-.02-.06-.03-.11-.06-.17-.08-.02,0-.03-.01-.05-.02-.07-.03-.14-.06-.2-.09-.01,0-.03-.01-.04-.02-.06-.03-.12-.05-.18-.07-.01,0-.02,0-.03-.01,0,0,.01-.01.02-.02.04-.03.08-.05.11-.08.02-.01.03-.02.05-.03.03-.02.06-.05.09-.07.02-.01.03-.02.05-.04.03-.03.07-.05.1-.08.01,0,.02-.02.04-.03.04-.04.09-.07.13-.11,0,0,.01-.01.02-.02.04-.03.07-.06.11-.1.01-.01.03-.02.04-.04.03-.03.06-.05.09-.08.01-.01.03-.03.04-.04.03-.03.06-.06.09-.09.01-.01.02-.02.03-.03.04-.04.08-.08.12-.12,0,0,.01-.01.02-.02.03-.04.07-.07.1-.11.01-.01.02-.03.03-.04.03-.03.05-.06.08-.09.01-.01.02-.03.04-.04.03-.03.05-.07.08-.1,0-.01.02-.02.03-.04.03-.05.07-.09.1-.14,0,0,0-.01.01-.02.03-.04.06-.08.09-.12,0-.01.02-.03.03-.04.02-.03.04-.07.07-.1.01-.02.02-.03.03-.05.02-.04.04-.07.06-.11,0-.01.02-.03.02-.04.03-.05.06-.1.08-.15,0,0,0,0,0-.01.02-.05.05-.09.07-.14,0-.02.02-.03.02-.05.02-.04.04-.07.05-.11,0-.02.02-.04.02-.05.02-.04.03-.08.05-.11,0-.02.01-.03.02-.05.02-.05.04-.11.07-.16,0,0,0,0,0-.01.02-.05.04-.1.06-.15,0-.02.01-.03.02-.05.01-.04.03-.08.04-.12,0-.02.01-.04.02-.06.01-.04.02-.08.04-.12,0-.02,0-.03.01-.05.02-.06.03-.11.05-.17,0,0,0,0,0,0,.01-.05.03-.11.04-.16,0-.02,0-.04.01-.05,0-.04.02-.08.02-.12,0-.02,0-.04.01-.06,0-.04.01-.08.02-.12,0-.02,0-.04,0-.05,0-.06.02-.12.03-.18,0,0,0,0,0,0,0-.06.01-.11.02-.17,0-.02,0-.04,0-.06,0-.04,0-.08,0-.12,0-.02,0-.04,0-.06,0-.04,0-.08,0-.13,0-.02,0-.04,0-.06,0-.06,0-.12,0-.18,0-3.41-2.77-6.18-6.18-6.18s-6.18,2.77-6.18,6.18c0,.06,0,.12,0,.18,0,.02,0,.04,0,.06,0,.04,0,.08,0,.13,0,.02,0,.04,0,.06,0,.04,0,.08,0,.12,0,.02,0,.04,0,.06,0,.06.01.11.02.17,0,0,0,0,0,0,0,.06.02.12.03.18,0,.02,0,.04,0,.05,0,.04.01.08.02.12,0,.02,0,.04.01.06,0,.04.02.08.02.12,0,.02,0,.04.01.05.01.05.03.11.04.16,0,0,0,0,0,0,.01.06.03.11.05.17,0,.02,0,.03.01.05.01.04.02.08.04.12,0,.02.01.04.02.06.01.04.03.08.04.11,0,.02.01.03.02.05.02.05.04.1.06.15,0,0,0,0,0,.01.02.05.04.11.07.16,0,.02.01.03.02.05.02.04.03.08.05.11,0,.02.02.04.02.05.02.04.03.07.05.11,0,.02.02.03.02.05.02.05.05.09.07.14,0,0,0,0,0,.01.03.05.06.1.08.15,0,.01.02.03.02.04.02.04.04.07.06.11.01.02.02.03.03.05.02.03.04.07.06.1,0,.01.02.03.03.04.03.04.06.08.08.12,0,0,0,.01.01.02.03.05.07.09.1.14,0,.01.02.03.03.04.03.03.05.07.08.1.01.02.02.03.04.05.02.03.05.06.08.09.01.01.02.03.04.04.03.04.06.07.1.11,0,0,.01.01.02.02.04.04.08.08.12.12.01.01.02.02.03.03.03.03.06.06.09.09.01.01.03.03.04.04.03.03.06.05.08.08.01.01.03.03.04.04.03.03.07.06.1.09,0,0,.02.01.02.02.04.04.09.07.13.11.01.01.03.02.04.03.03.03.06.05.1.08.02.01.03.02.05.04.03.02.06.05.09.07.02.01.03.02.05.03.04.03.07.05.11.08,0,0,.02.01.02.02-.01,0-.02,0-.03.01-.06.02-.12.05-.17.07-.01,0-.03.01-.04.02-.07.03-.14.06-.2.09-.02,0-.03.02-.05.02-.06.03-.11.05-.16.08-.02,0-.03.02-.05.02-.07.03-.13.07-.2.1-.01,0-.03.01-.04.02-.05.03-.11.06-.16.09-.02,0-.03.02-.05.03-.06.04-.13.08-.19.11,0,0-.02.01-.03.02-.06.03-.11.07-.17.11-.02.01-.03.02-.05.03-.06.04-.13.08-.19.13-.06.04-.13.09-.19.13-.02.01-.03.02-.05.03-.06.05-.12.09-.18.14,0,0,0,0,0,0-.06.05-.11.09-.17.14-.01.01-.03.02-.04.04-.06.05-.12.1-.17.15,0,0-.01,0-.02.01-.05.05-.11.09-.16.14-.01.01-.03.02-.04.04-.06.05-.11.1-.16.16,0,0-.01.01-.02.02-.05.05-.1.1-.15.15-.01.01-.02.03-.04.04-.05.05-.1.11-.16.16,0,0-.01.02-.02.02-.05.05-.09.1-.13.15-.01.01-.02.03-.03.04-.05.06-.1.11-.15.17,0,0-.02.02-.02.03-.04.05-.08.1-.12.16-.01.01-.02.03-.03.04-.05.06-.09.12-.14.18,0,.01-.02.02-.02.03-.04.05-.08.11-.11.16,0,.01-.02.03-.03.04-.04.06-.08.12-.12.19,0,.01-.02.03-.02.04-.04.05-.07.11-.1.16,0,.01-.02.03-.02.04-.04.06-.08.13-.11.19,0,0,0,.01,0,.02-1.61-1.89-2.52-4.32-2.52-6.83C1.74,6.46,6.46,1.74,12.26,1.74s10.53,4.72,10.53,10.53c0,2.5-.91,4.93-2.52,6.83Z"/>
  </g>
</svg>