<?xml version="1.0" encoding="UTF-8"?>
<svg id="Layer_2" data-name="Layer 2" xmlns="http://www.w3.org/2000/svg" viewBox="0 0 39.71 25">
  <defs>
    <style>
      .cls-1 {
        fill: #fff;
      }
    </style>
  </defs>
  <g id="Layer_2-2" data-name="Layer 2">
    <g id="Layer_1-2" data-name="Layer 1-2">
      <g>
        <path class="cls-1" d="M0,.05h12.32c3.29.25,6.38,1.05,6.93,4.79.35,2.34-.2,4.24-2.14,5.63-.35.25-.75.45-1.1.7,2.59.65,4.29,2.94,4.44,5.58.3,5.29-3.69,7.33-8.38,7.58-3.94.2-7.93-.05-11.92,0H0V0v.05ZM5.39,9.97h5.68c1.75-.15,2.99-.9,3.04-2.79,0-1.89-1-2.74-2.79-2.94h-5.93v5.73h0ZM5.39,20.34h5.98c2.39-.1,3.94-1.4,3.64-3.89-.25-1.99-1.55-2.74-3.44-2.89h-6.23v6.78h.05Z"/>
        <g>
          <path class="cls-1" d="M39.64,16.8h-12.76c.05,1.65.65,3.44,2.24,4.14,1.4.6,3.49.55,4.74-.35.5-.35,1.1-.95,1.3-1.55h4.29c-.6,1.99-1.84,3.89-3.74,4.89-2.64,1.4-6.13,1.4-8.83.15-5.58-2.59-6.18-11.57-1.8-15.51,3.44-3.14,9.67-3.14,12.61.7,1.05,1.35,1.75,2.99,1.94,4.69.1.95.1,1.89,0,2.84ZM34.9,13.81c-.15-1.6-.95-3.14-2.59-3.64s-3.54,0-4.64,1.35c-.5.6-.65,1.5-.7,2.29h7.93Z"/>
          <polygon class="cls-1" points="35.8 1.75 35.8 4.09 35.7 4.14 25.98 4.14 25.88 4.09 25.88 1.8 25.98 1.75 35.8 1.75"/>
        </g>
      </g>
    </g>
  </g>
</svg>