<?xml version="1.0" encoding="UTF-8"?>
<svg id="Layer_2" data-name="Layer 2" xmlns="http://www.w3.org/2000/svg" viewBox="0 0 24.27 24.04">
  <defs>
    <style>
      .cls-1 {
        fill: #fff;
      }
    </style>
  </defs>
  <g id="Layer_1-2" data-name="Layer 1">
    <path class="cls-1" d="M24.13,13.48l-1.84-2.35c-.15-.19-.19-.45-.1-.67l1.1-2.77c.14-.36-.04-.77-.41-.89l-2.82-.98c-.23-.08-.4-.27-.44-.51l-.57-2.93c-.07-.38-.45-.62-.83-.53l-2.9.7c-.23.06-.48-.02-.65-.19L12.63.21c-.27-.28-.71-.28-.98,0l-2.06,2.15c-.17.17-.41.25-.65.19l-2.9-.7c-.38-.09-.75.15-.83.53l-.57,2.93c-.05.24-.21.43-.44.51l-2.82.98c-.37.13-.55.53-.41.89l1.1,2.77c.09.22.05.48-.1.67L.14,13.48c-.24.3-.17.75.14.97l2.43,1.73c.2.14.3.37.28.62l-.28,2.97c-.04.38.26.72.64.74l2.98.15c.24.01.46.15.57.37l1.37,2.65c.18.34.61.47.94.28l2.58-1.49c.21-.12.47-.12.68,0l2.58,1.49c.34.19.76.07.94-.28l1.37-2.65c.11-.21.33-.35.57-.37l2.98-.15c.39-.02.68-.36.64-.74l-.28-2.97c-.02-.24.08-.48.28-.62l2.43-1.73c.31-.22.38-.67.14-.97ZM16.78,11.15l-1.67,2.07.14,2.66c.02.33-.31.56-.62.45l-2.49-.95-2.49.95c-.31.12-.63-.12-.62-.45l.14-2.66-1.67-2.07c-.21-.26-.08-.64.24-.72l2.57-.69,1.45-2.23c.18-.28.58-.28.76,0l1.45,2.23,2.57.69c.32.09.44.47.24.72Z"/>
  </g>
</svg>