<?xml version="1.0" encoding="UTF-8"?>
<svg id="Layer_2" data-name="Layer 2" xmlns="http://www.w3.org/2000/svg" viewBox="0 0 24.09 24.09">
  <defs>
    <style>
      .cls-1 {
        fill: #fff;
      }
    </style>
  </defs>
  <g id="Layer_1-2" data-name="Layer 1">
    <path class="cls-1" d="M24.09,12.05c0,6.65-5.39,12.05-12.05,12.05S0,18.7,0,12.05,5.39,0,12.05,0s12.05,5.39,12.05,12.05ZM5.99,5.69c-1.39,1.52-1.69,2.94-1.01,4.92,1.03,3.01,5.3,7.47,8.33,8.45,2.46.8,4.04.39,5.75-1.49.22-.24.56-.56.35-.9-.76-.61-1.79-2.23-2.81-2.27-1.42-.05-1.67,2.03-3.31,1.1-1.39-.79-3.91-3.19-4.63-4.62-.78-1.54.75-1.86,1.02-2.89.11-.42.04-.89-.21-1.24-.21-.31-1.64-1.73-1.95-1.97-.27-.2-.44-.14-.7.06-.19.14-.66.65-.84.84Z"/>
  </g>
</svg>