<?xml version="1.0" encoding="UTF-8"?>
<svg id="Layer_2" data-name="Layer 2" xmlns="http://www.w3.org/2000/svg" viewBox="0 0 49.78 50">
  <defs>
    <style>
      .cls-1 {
        fill: #fff;
      }
    </style>
  </defs>
  <g id="Layer_2-2" data-name="Layer 2">
    <g id="Layer_1-2" data-name="Layer 1-2">
      <path class="cls-1" d="M4.4,0h40.69c2.4,0,4.4,1.7,4.7,4.1v41.69c-.2,2.1-1.8,3.7-3.8,4.1-14.1.1-28.19.2-42.29,0-1.9-.3-3.5-2-3.7-3.9V4C.3,1.8,2.2.1,4.5.1l-.1-.1ZM9.8,10.3c-.4,0-.8.5-.9.9v12c.1.3.3.5.6.6h12.3c.5-.2.6-.5.7-1,.3-3.7-.2-7.7,0-11.4,0-.6-.5-1.1-1.1-1.1h-11.6ZM27.99,10.3c-.4,0-.8.5-.9.9v2.8c0,.4.3.7.7.8h12c.4,0,.8-.3.8-.7v-3c0-.3-.4-.7-.8-.8h-11.9.1ZM27.99,19.39c-.4,0-.8.5-.9.9v2.8c0,.4.3.7.7.8h12c.4,0,.8-.3.8-.7v-3c0-.3-.4-.7-.8-.8h-11.9.1ZM9.9,28.39c-.4,0-.8.4-.9.8v3.1c.1.4.6.6,1,.7,10,0,19.99.2,29.99-.1.3-.1.6-.4.7-.7v-2.9c0-.4-.6-.7-1-.8H9.9v-.1ZM9.9,37.49c-.4,0-.8.4-.9.8v3.1c.1.4.6.6.9.7h24.99c.7,0,1.1-.3,1.2-1v-2.7c-.1-.5-.6-.8-1-.9H9.9Z"/>
    </g>
  </g>
</svg>