<?xml version="1.0" encoding="UTF-8"?>
<svg id="Layer_2" data-name="Layer 2" xmlns="http://www.w3.org/2000/svg" viewBox="0 0 24.87 24.93">
  <defs>
    <style>
      .cls-1 {
        fill: #fff;
      }
    </style>
  </defs>
  <g id="Layer_2-2" data-name="Layer 2">
    <g id="Layer_1-2" data-name="Layer 1-2">
      <g>
        <path class="cls-1" d="M16.44.05l2.14.15c3.49.45,5.68,2.59,6.13,6.13l.15,2.24v7.73l-.15,2.29c-.65,4.69-3.79,6.28-8.18,6.33h-8.33l-1.94-.15c-3.49-.5-5.63-2.64-6.08-6.13l-.15-1.94c.05-2.74-.1-5.48,0-8.18C.13,6.03.43,3.54,2.43,1.8,4.17.3,6.47.05,8.66,0h7.78v.05ZM9.06,2.29c-1.99.05-4.19,0-5.58,1.7-1.2,1.4-1.1,3.24-1.15,4.99-.1,2.64-.1,5.39,0,7.98.15,3.89,1.45,5.48,5.39,5.68,2.74.15,5.53.15,8.28,0,2.04-.05,4.09.05,5.53-1.65,1.2-1.4,1.1-3.19,1.15-4.94.1-2.84.1-5.68,0-8.53-.2-3.74-1.75-5.09-5.43-5.29-2.59-.15-5.48-.1-8.13,0h0l-.05.05Z"/>
        <path class="cls-1" d="M11.75,6.13c6.78-.55,9.72,8.03,4.24,11.72-4.94,3.29-11.32-1.4-9.72-7.13.7-2.39,2.94-4.39,5.43-4.59h.05ZM11.85,8.38c-1.5.15-2.94,1.45-3.39,2.84-1.25,3.94,3.49,7.13,6.63,4.49,3.19-2.69,1-7.83-3.24-7.33Z"/>
        <path class="cls-1" d="M18.78,4.39c2.34-.4,2.39,3.14.2,2.94-1.75-.15-1.75-2.69-.2-2.94Z"/>
      </g>
    </g>
  </g>
</svg>