<?xml version="1.0" encoding="UTF-8"?>
<svg id="Layer_2" data-name="Layer 2" xmlns="http://www.w3.org/2000/svg" viewBox="0 0 24.89 24.95">
  <defs>
    <style>
      .cls-1 {
        fill: #fff;
      }
    </style>
  </defs>
  <g id="Layer_2-2" data-name="Layer 2">
    <g id="Layer_1-2" data-name="Layer 1-2">
      <g>
        <path class="cls-1" d="M24.89,24.9h-5.04v-8.33c0-.8.05-1.4-.25-2.14-.7-1.75-2.84-2.14-4.44-1.45-1.15.5-1.75,1.75-1.84,2.99v8.93h-4.99V8.34h4.69v2.39c.6-.75,1.3-1.4,2.14-1.84,2.49-1.35,5.53-1.1,7.68.8,1.1.95,1.89,2.99,1.94,4.39v10.87h0l.1-.05Z"/>
        <g>
          <rect class="cls-1" x=".41" y="8.34" width="5.09" height="16.55"/>
          <path class="cls-1" d="M2.7.01c2.59-.25,4.19,2.74,2.54,4.79-1.25,1.6-3.79,1.4-4.84-.35C-.69,2.61.56.26,2.65.06l.05-.05Z"/>
        </g>
      </g>
    </g>
  </g>
</svg>