<?xml version="1.0" encoding="UTF-8"?>
<svg id="Layer_2" data-name="Layer 2" xmlns="http://www.w3.org/2000/svg" viewBox="0 0 38.6 50.03">
  <defs>
    <style>
      .cls-1 {
        fill: #fff;
      }
    </style>
  </defs>
  <g id="Layer_2-2" data-name="Layer 2">
    <g id="Layer_1-2" data-name="Layer 1-2">
      <g>
        <path class="cls-1" d="M21.4,31.43v18.6h6.1c.8,0,1.7-.3,2.2-.9l8-8c.6-.6.9-1.4.9-2.2v-18.2c-1.2-.2-2.4-.4-3.6-.5-4.1,3.8-9,8.2-13.7,11.3h0l.1-.1Z"/>
        <path class="cls-1" d="M28.7,1.43l-4.3,7.3c-3.4-.3-6.8-.3-10.3,0L10,1.43,1.3,8.23c-.8.6-1.2,1.5-1.2,2.5v6.3c1.4-.2,2.7-.4,4.1-.6,4.9-.6,10-1,15.1-1h0c5.1,0,10.1.3,15,1,1.4.2,2.7.4,4.1.6v-6.2c0-1-.4-1.9-1.2-2.5L28.5,1.53l.2-.1Z"/>
        <path class="cls-1" d="M19.5,18.73h0c-3.9,0-7.2.3-11,.7,3.5,3.2,6.9,6.4,11,8.8,4.3-2.4,7.9-5.7,11.2-8.8-3.7-.5-7.3-.7-11.2-.7Z"/>
        <path class="cls-1" d="M.1,20.73v18.2c0,.8.3,1.7.9,2.2l8,8c.6.6,1.4.9,2.2.9h6.1v-18.6c-4.6-3.2-9.6-7.7-13.7-11.3-1.2.2-2.4.3-3.6.5h0l.1.1Z"/>
        <path class="cls-1" d="M22.4,5.23L25.1.23C21.3-.08,17.4-.08,13.6.23l2.7,5c2-.1,4-.1,6.1,0Z"/>
      </g>
    </g>
  </g>
</svg>