<?xml version="1.0" encoding="UTF-8"?>
<svg id="Layer_2" data-name="Layer 2" xmlns="http://www.w3.org/2000/svg" viewBox="0 0 204.11 50.86">
  <defs>
    <style>
      .cls-1 {
        font-family: Commodore-64-Angled, 'Commodore 64 Angled';
        font-size: 26.89px;
      }

      .cls-1, .cls-2 {
        fill: #73bf44;
      }

      .cls-1, .cls-3 {
        isolation: isolate;
      }

      .cls-2 {
        stroke: #73bf44;
        stroke-miterlimit: 10;
        stroke-width: .7px;
      }

      .cls-4 {
        fill: #fff;
      }

      .cls-5 {
        fill: #27202b;
      }
    </style>
  </defs>
  <g id="Layer_2-2" data-name="Layer 2">
    <g id="Layer_1-2" data-name="Layer 1-2">
      <polygon class="cls-4" points="178.79 0 22.73 0 0 0 0 19.15 1.53 21 18.83 38.29 22.73 38.29 178.79 38.29 182.7 38.29 204.11 19.15 204.02 19.15 204.02 0 178.79 0"/>
      <g>
        <g class="cls-3">
          <text class="cls-1" transform="translate(34.97 30.41)"><tspan x="0" y="0">n</tspan></text>
          <text class="cls-1" transform="translate(55.34 30.41)"><tspan x="0" y="0">u</tspan></text>
          <text class="cls-1" transform="translate(74.26 30.41)"><tspan x="0" y="0">l</tspan></text>
          <text class="cls-1" transform="translate(90.76 30.41)"><tspan x="0" y="0">l</tspan></text>
        </g>
        <g>
          <path class="cls-5" d="M119.47,19.56c.71,0,1.3-.6,1.3-1.3s-.58-1.3-1.3-1.3h-2.78v-1.76c0-.78-.59-1.38-1.38-1.38s-1.38.6-1.38,1.38v1.76h-.87c-.72,0-1.3.58-1.3,1.3s.6,1.3,1.3,1.3h.87v5.05c0,3.39,2.22,5.67,5.53,5.67.72,0,1.3-.6,1.3-1.33s-.6-1.3-1.3-1.3c-1.76,0-2.78-1.11-2.78-3.04v-5.05h2.79Z"/>
          <path class="cls-5" d="M134.26,25.84c-.5,0-.82.29-1.1.54l-.03.03c-.53.6-1.46,1.31-2.9,1.31-2.25,0-4.01-1.85-4.01-4.2s1.76-4.2,4.01-4.2c.63,0,1.24.16,1.71.44l-3.47,4.09c-.22.22-.32.52-.32.88,0,.73.57,1.28,1.33,1.28.39,0,.72-.15.99-.46l4.29-5.13c.29-.32.42-.63.42-1s-.18-.77-.49-1.05c-1.14-1.05-2.76-1.65-4.45-1.65-3.8,0-6.78,2.99-6.78,6.81s2.98,6.81,6.78,6.81c1.99,0,3.82-.82,5.02-2.24.24-.27.39-.63.39-.92,0-.76-.59-1.33-1.38-1.33h0Z"/>
          <path class="cls-5" d="M145.81,19.32c1.44,0,2.37.71,2.9,1.31l.12.11c.25.21.53.44,1.01.44.8,0,1.38-.55,1.38-1.3,0-.31-.15-.67-.39-.94-1.17-1.39-3.05-2.22-5.02-2.22-3.8,0-6.78,2.99-6.78,6.81s2.98,6.81,6.78,6.81c1.99,0,3.82-.82,5.02-2.24.24-.27.39-.63.39-.92,0-.76-.59-1.33-1.38-1.33-.5,0-.81.28-1.05.5l-.07.07c-.75.84-1.78,1.31-2.9,1.31-2.25,0-4.01-1.85-4.01-4.2s1.76-4.2,4.01-4.2h0Z"/>
          <path class="cls-5" d="M161.6,16.71c-1.44,0-2.49.5-3.19,1v-4.17c0-.76-.62-1.38-1.38-1.38s-1.38.6-1.38,1.38v15.33c0,.79.6,1.4,1.38,1.4s1.38-.63,1.38-1.4v-6.23c0-2.46,1.52-3.33,2.95-3.33,1.83,0,2.97,1.28,2.97,3.33v6.23c0,.79.6,1.4,1.38,1.4s1.38-.63,1.38-1.4v-6.18c0-3.53-2.25-5.99-5.48-5.99h-.01Z"/>
        </g>
      </g>
      <g>
        <path class="cls-2" d="M46.25,43.72h-2.25c-.2,0-.33.13-.33.33v6.01c0,.18.13.33.33.33h2.25c1.92,0,3.42-1.4,3.42-3.33s-1.5-3.33-3.42-3.33h0ZM46.25,49.78h-1.92v-5.46h1.92c1.54,0,2.76,1.14,2.76,2.73s-1.21,2.73-2.76,2.73Z"/>
        <path class="cls-2" d="M67.78,44.32c.17,0,.3-.14.3-.3,0-.17-.13-.3-.3-.3h-3.29c-.18,0-.33.13-.33.33v6.01c0,.18.13.33.33.33h3.29c.17,0,.3-.14.3-.3,0-.17-.13-.3-.3-.3h-2.97v-2.43h2.97c.17,0,.3-.14.3-.3,0-.17-.13-.3-.3-.3h-2.97v-2.43h2.97Z"/>
        <path class="cls-2" d="M84.36,46.81c-.89-.27-1.59-.57-1.59-1.42,0-.65.44-1.23,1.28-1.23s1.28.55,1.33,1.11c.04.18.18.25.29.25.17,0,.3-.13.3-.3,0-.94-.82-1.63-1.92-1.63s-1.91.77-1.91,1.8c0,1.24.91,1.59,1.88,1.91.77.26,1.33.64,1.33,1.42,0,.61-.51,1.2-1.32,1.2-.86,0-1.32-.59-1.38-1.14-.04-.14-.17-.22-.29-.22-.17,0-.3.13-.3.3,0,.86.86,1.65,1.97,1.65s1.97-.85,1.97-1.8c0-1.15-.81-1.65-1.65-1.89h0Z"/>
        <path class="cls-2" d="M100.88,43.63c-.2,0-.33.14-.33.33v6.18c0,.18.13.34.33.34.18,0,.33-.16.33-.34v-6.18c0-.18-.14-.33-.33-.33Z"/>
        <path class="cls-2" d="M122.19,46.75h-2.69c-.16,0-.3.13-.3.3,0,.16.14.3.3.3h2.3c-.13,1.5-1.29,2.56-2.7,2.56-1.54,0-2.77-1.27-2.77-2.86s1.23-2.86,2.77-2.86c.88,0,1.59.38,2.12.99.1.08.18.09.24.09.17,0,.3-.13.3-.3,0-.09-.05-.18-.1-.25-.57-.67-1.46-1.14-2.55-1.14-1.91,0-3.42,1.52-3.42,3.46s1.52,3.46,3.42,3.46,3.4-1.57,3.4-3.47c0-.16-.14-.29-.3-.29h-.02Z"/>
        <path class="cls-2" d="M141.62,43.63c-.18,0-.33.14-.33.33v4.35l-3.81-4.55c-.07-.09-.16-.13-.26-.13-.21,0-.34.14-.34.33v6.18c0,.18.13.34.33.34.18,0,.33-.16.33-.34v-5.32l3.76,4.48v.84c0,.18.14.34.33.34s.33-.16.33-.34v-6.18c0-.18-.14-.33-.33-.33h-.01Z"/>
        <path class="cls-2" d="M158.78,46.81c-.89-.27-1.59-.57-1.59-1.42,0-.65.44-1.23,1.28-1.23s1.28.55,1.33,1.11c.04.18.18.25.29.25.17,0,.3-.13.3-.3,0-.94-.82-1.63-1.92-1.63s-1.91.77-1.91,1.8c0,1.24.91,1.59,1.88,1.91.77.26,1.33.64,1.33,1.42,0,.61-.51,1.2-1.32,1.2-.86,0-1.32-.59-1.38-1.14-.04-.14-.17-.22-.29-.22-.17,0-.3.13-.3.3,0,.86.86,1.65,1.97,1.65s1.97-.85,1.97-1.8c0-1.15-.81-1.65-1.65-1.89h0Z"/>
      </g>
    </g>
  </g>
</svg>