<?xml version="1.0" encoding="UTF-8"?>
<svg id="Layer_2" data-name="Layer 2" xmlns="http://www.w3.org/2000/svg" viewBox="0 0 83.97 49.91">
  <defs>
    <style>
      .cls-1 {
        fill: #fff;
      }
    </style>
  </defs>
  <g id="Layer_2-2" data-name="Layer 2">
    <g id="Layer_1-2" data-name="Layer 1-2">
      <g>
        <path class="cls-1" d="M83.97,24.29v1.3c-.5,1.4-1.5,2.5-2.5,3.7-6.9,8.6-16.89,16.1-27.69,18.99-19.89,5.5-38.69-3.5-51.18-18.89-1-1.2-2-2.4-2.6-3.8v-1.3c.5-1.4,1.5-2.5,2.5-3.7C8.2,13.5,16.1,7.1,24.49,3.6c21.39-9,42.89-.3,56.88,16.89,1,1.2,2,2.4,2.6,3.8ZM59.68,24.99c0-9.7-7.9-17.59-17.59-17.59s-17.59,7.9-17.59,17.59,7.9,17.59,17.59,17.59,17.59-7.9,17.59-17.59Z"/>
        <circle class="cls-1" cx="42.09" cy="24.99" r="9.5"/>
      </g>
    </g>
  </g>
</svg>