<?xml version="1.0" encoding="UTF-8"?>
<svg id="Layer_2" data-name="Layer 2" xmlns="http://www.w3.org/2000/svg" viewBox="0 0 50 50">
  <defs>
    <style>
      .cls-1 {
        fill: #fff;
      }
    </style>
  </defs>
  <g id="Layer_2-2" data-name="Layer 2">
    <g id="bg">
      <polygon class="cls-1" points="50 21.5 50 14.3 42.9 14.3 42.9 7.2 35.8 7.2 35.8 0 28.6 0 28.6 7.2 21.5 7.2 21.5 0 14.3 0 14.3 7.2 14.3 7.2 7.2 7.2 7.2 14.3 0 14.3 0 21.5 7.2 21.5 7.2 28.6 0 28.6 0 35.8 7.2 35.8 7.2 42.9 14.3 42.9 14.3 50 21.5 50 21.5 42.9 28.6 42.9 28.6 35.8 28.6 21.5 21.5 21.5 21.5 35.8 14.3 35.8 14.3 14.3 35.8 14.3 35.8 42.9 42.9 42.9 42.9 35.8 50 35.8 50 28.6 42.9 28.6 42.9 21.5 50 21.5"/>
    </g>
  </g>
</svg>