<?xml version="1.0" encoding="UTF-8"?>
<svg id="Layer_2" data-name="Layer 2" xmlns="http://www.w3.org/2000/svg" viewBox="0 0 23.88 23.66">
  <defs>
    <style>
      .cls-1 {
        fill: #fff;
      }
    </style>
  </defs>
  <g id="Layer_1-2" data-name="Layer 1">
    <path class="cls-1" d="M23.87,12.07c0-.12,0-.24,0-.35,0-1.98-.48-3.85-1.34-5.5-.94.27-2-.03-2.65-.85-.65-.81-.71-1.91-.24-2.77-1.52-1.29-3.37-2.21-5.41-2.61-.38.91-1.27,1.54-2.31,1.54s-1.93-.64-2.31-1.54c-2.04.4-3.89,1.32-5.41,2.61.47.86.41,1.95-.24,2.77-.65.81-1.7,1.12-2.65.85-.86,1.65-1.34,3.52-1.34,5.5,0,.12,0,.24,0,.35.97.17,1.78.89,2.02,1.91.23,1.02-.19,2.03-.99,2.6.83,1.87,2.13,3.48,3.74,4.69.73-.65,1.81-.84,2.75-.39.94.45,1.47,1.41,1.41,2.39.96.25,1.96.38,3,.38s2.04-.13,3-.38c-.05-.98.47-1.94,1.41-2.39.94-.45,2.02-.27,2.75.39,1.61-1.21,2.91-2.83,3.74-4.69-.8-.57-1.22-1.58-.99-2.6.23-1.01,1.05-1.74,2.02-1.91ZM11.94,17.15c-2.94,0-5.33-2.38-5.33-5.33s2.38-5.33,5.33-5.33,5.33,2.38,5.33,5.33-2.38,5.33-5.33,5.33Z"/>
  </g>
</svg>