<?xml version="1.0" encoding="UTF-8"?>
<svg id="Layer_2" data-name="Layer 2" xmlns="http://www.w3.org/2000/svg" viewBox="0 0 15.22 22.79">
  <defs>
    <style>
      .cls-1 {
        fill: #fff;
      }
    </style>
  </defs>
  <g id="Layer_1-2" data-name="Layer 1">
    <g>
      <g>
        <path class="cls-1" d="M4.59,18.55c1.8,0,4.08,0,5.97,0,1.26.12,1.4,1.49.18,1.77h-6.24c-1.2-.22-1.13-1.76.09-1.76Z"/>
        <path class="cls-1" d="M5.55,21.2c1.31,0,2.84,0,4.1,0,1.09,0,1.08,1.46-.04,1.59-1.27,0-2.84,0-4.02,0-1.11,0-1.08-1.38-.04-1.58Z"/>
      </g>
      <path class="cls-1" d="M6.98.02C1.4.43-1.82,6.73,1.1,11.52c.68,1.11,1.93,1.94,2.25,3.17.21.81.17,1.64.31,2.42.05.29.16.46.49.47h3.03v-3.98l-2.1-2.1c-.17-.17-.17-.44,0-.61.17-.17.44-.17.61,0l1.92,1.92,1.92-1.92c.17-.17.44-.17.61,0,.17.17.17.44,0,.61l-2.1,2.1v3.97h3.12c.21-.05.31-.12.37-.33.17-1.26.1-2.57.86-3.65.24-.34.61-.62.89-.94C17.82,7.46,13.84-.48,6.98.02Z"/>
    </g>
  </g>
</svg>