<?xml version="1.0" encoding="UTF-8"?>
<svg id="Layer_2" data-name="Layer 2" xmlns="http://www.w3.org/2000/svg" viewBox="0 0 49.88 49.92">
  <defs>
    <style>
      .cls-1 {
        fill: #fff;
      }
    </style>
  </defs>
  <g id="Layer_2-2" data-name="Layer 2">
    <g id="Layer_1-2" data-name="Layer 1-2">
      <g>
        <path class="cls-1" d="M18.5.05c15.9-1.1,26.49,15.7,18.89,29.69-.2.4-1.3,1.9-1.3,2.1l2.1,2.2c.3,0,.8-1.5,2.2-.7,2.4,2.7,5.6,5.1,7.9,7.9,4.6,5.3-1.7,11.6-6.9,7.2-2.8-2.3-5.3-5.6-8-8-.9-1.4.7-1.9.7-2.2l-2.2-2.1h-.2c-11.2,8.3-27.39,2.4-30.99-10.9C-2.6,13.15,6.1.95,18.6.05h-.1ZM35.59,19.95c0-8.7-7-15.7-15.7-15.7s-15.7,7-15.7,15.7,7,15.7,15.7,15.7,15.7-7,15.7-15.7h0Z"/>
        <path class="cls-1" d="M31.99,14.25c.5.5,1.4,4.5,1.2,5.2-.2.9-1.2.7-1.8,1.1-1.2.7-1.6,2.9-.6,4,.5.5,1.1.4.9,1.5-.2.8-2.5,3.7-3.2,4-1,.4-1.2-.6-2-.8-1.1-.2-2.5.4-3.1,1.3-.7,1.2.6,2.1-1.7,2.5-.9.2-3.9.2-4.6-.3-.6-.4-.2-1.4-.5-2.1-.4-.9-1.9-1.6-2.9-1.5-1.1.1-1.3,1.3-2.4.8-.6-.3-2.9-3.1-3.1-3.8-.4-1.3.5-1.2.9-1.9.7-1.1.5-2.7-.4-3.6-1.1-1.1-2.2.2-2.1-2.4,0-.7.8-3.9,1.3-4.2.6-.4,1.5.1,2.2,0,1.4-.3,2.3-2,2-3.3-.1-.5-.6-.7-.3-1.5.2-.7,4.3-2.6,5-2.5.7,0,.8.9,1.1,1.3.9,1.1,3,1.2,4,.2.5-.6.3-1.5,1.3-1.5.9,0,4.5,1.7,4.9,2.5.3.7-.5,1.3-.5,2.1,0,1.1,1.2,2.5,2.3,2.6.6,0,1.6-.4,2.1,0h0v.3ZM25.3,20.15c0-2.9-2.4-5.3-5.3-5.3s-5.3,2.4-5.3,5.3,2.4,5.3,5.3,5.3,5.3-2.4,5.3-5.3Z"/>
      </g>
    </g>
  </g>
</svg>