<?xml version="1.0" encoding="UTF-8"?>
<svg id="Layer_2" data-name="Layer 2" xmlns="http://www.w3.org/2000/svg" viewBox="0 0 49.4 50">
  <defs>
    <style>
      .cls-1 {
        fill: #fff;
      }
    </style>
  </defs>
  <g id="Layer_2-2" data-name="Layer 2">
    <g id="Layer_1-2" data-name="Layer 1-2">
      <g>
        <polygon class="cls-1" points="6.7 20.1 7.8 17.3 5.1 17.3 3.3 14.7 2.8 15.2 2.3 17.4 4.2 20.5 6.7 20.1"/>
        <polygon class="cls-1" points="30.2 21.4 29.7 18.2 28.1 18.9 26.8 21.5 27.6 23 28.1 26.9 30.9 22.3 30.2 21.4"/>
        <polygon class="cls-1" points="13.8 26.5 15.4 23.9 14.7 19 11.6 17 9.4 22.4 11.4 25.8 13.8 26.5"/>
        <path class="cls-1" d="M39.7,12.9l-5.4,6.8.6,3,.8,1.2-3.5,5.3,1.7-1.2,5.6,1.7.8,2.6h.8l1.4-1.6,2.5-.6-1.6,6.1-3.4,3.1-1,2.9v.4c6.2-3.1,10.4-9.6,10.4-17s-1.7-9-4.6-12.4l-.8.4-4.5-.9h0l.2.2Z"/>
        <path class="cls-1" d="M23.4,50c1.9,0,3.6-.3,5.3-.8l-.8-1.6-2.4-1.4-5.9.2-2.6-2.5-4-.2,1.2-2-1.6-2-4.6,2.3c3.4,4.8,9.1,8,15.5,8h-.1Z"/>
        <path class="cls-1" d="M38.8,34.6l-1.7,2h-1.4l-.8-2.8-5.1-1.6-2,1.5-4.2-.8-3-3-1.6,2.5-2.8-.7-.2,5.3,2.3,2.6-1.2,1.6,3.1.2,2.5,2.4,5.9-.2,2.6,1.5,1.1,1.9c.6-.2,1.2-.4,1.8-.7v-.7l1.2-3.5,3.3-3,1.5-5.1-1.4.4h0l.1.2Z"/>
        <path class="cls-1" d="M7.9,32.8l.2-5.2-2.1-3.6-2.6.4-2.1-3.8.3-1.4h-.5c-.7,2-1.1,4.1-1.1,6.4,0,3.6,1,7,2.8,9.9l5.1-2.7h0Z"/>
        <path class="cls-1" d="M5.4,13.6l1.2-1,2.2,2.9h2.6l1-2,4.2,2.7.9,5.8,2.6,2.8,3.6.7-.8-4.9-1.2-1.7,1.6-3.3,2.1-.6,1.7-9.8-3.5-2.6h-.9c-7.7,0-14.4,4.6-17.4,11.3h0l.1-.3Z"/>
        <path class="cls-1" d="M43.2,5.8c-2.9-3.1-6.9-5.2-11.3-5.8l2.9,2.1-1.9,9.5.8-.5,4.5-6,4.6.9.3-.2h.1Z"/>
      </g>
    </g>
  </g>
</svg>