<?xml version="1.0" encoding="UTF-8"?>
<svg id="Layer_2" data-name="Layer 2" xmlns="http://www.w3.org/2000/svg" viewBox="0 0 46 50">
  <defs>
    <style>
      .cls-1 {
        fill: #fff;
      }
    </style>
  </defs>
  <g id="Layer_2-2" data-name="Layer 2">
    <g id="Text">
      <g>
        <polygon class="cls-1" points="17.7 6.5 18.3 6.8 23 9.6 27.7 6.8 28.3 6.5 28.9 6.8 40.7 13.6 40.7 10.2 23 0 5.3 10.2 5.3 13.6 17.1 6.8 17.7 6.5"/>
        <polygon class="cls-1" points="43 17.7 43 31.3 43 32 42.4 32.3 37.7 35 37.7 40.5 37.7 41.2 37.1 41.5 25.3 48.3 28.3 50 46 39.8 46 19.4 43 17.7"/>
        <polygon class="cls-1" points="37.7 18.1 37.7 18.7 37.7 32.3 40.7 30.6 40.7 16.3 28.3 9.2 25.3 10.9 37.1 17.7 37.7 18.1"/>
        <polygon class="cls-1" points="20.7 48.3 8.9 41.5 8.3 41.2 8.3 40.5 8.3 35 3.6 32.3 3 32 3 31.3 3 17.7 0 19.4 0 39.8 17.7 50 20.7 48.3"/>
        <polygon class="cls-1" points="20.7 10.9 17.7 9.2 5.3 16.3 5.3 30.6 8.3 32.3 8.3 18.7 8.3 18.1 8.9 17.7 20.7 10.9"/>
        <polygon class="cls-1" points="35.4 39.8 35.4 36.4 23.6 43.2 23 43.5 22.4 43.2 10.6 36.4 10.6 39.8 23 47 35.4 39.8"/>
        <polygon class="cls-1" points="35.4 33.7 35.4 19.4 23 12.3 10.6 19.4 10.6 33.7 23 40.8 35.4 33.7"/>
      </g>
    </g>
  </g>
</svg>